<?xml version="1.0" standalone="no"?>
<!DOCTYPE svg PUBLIC "-//W3C//DTD SVG 1.1//EN" "http://www.w3.org/Graphics/SVG/1.1/DTD/svg11.dtd" >
<svg xmlns="http://www.w3.org/2000/svg">
<metadata></metadata>
<defs>
<font id="futurafuturislightcregular" horiz-adv-x="1122" >
<font-face units-per-em="2048" ascent="1589" descent="-459" />
<missing-glyph horiz-adv-x="477" />
<glyph horiz-adv-x="2048" />
<glyph horiz-adv-x="2048" />
<glyph unicode="&#xd;" horiz-adv-x="2048" />
<glyph unicode=" "  horiz-adv-x="477" />
<glyph unicode="&#x09;" horiz-adv-x="477" />
<glyph unicode="&#xa0;" horiz-adv-x="477" />
<glyph unicode="!" horiz-adv-x="475" d="M143 72q0 40 27.5 67t67.5 27t67 -27t27 -67t-27 -67.5t-67 -27.5t-67.5 27.5t-27.5 67.5zM176 287v1147h123v-1147h-123z" />
<glyph unicode="&#x22;" horiz-adv-x="692" d="M102 1434h201l-59 -416h-86zM389 1434h201l-60 -416h-86z" />
<glyph unicode="#" horiz-adv-x="1630" d="M180 379l25 139h276l68 397h-277l25 140h276l52 297h114l-51 -297h371l51 297h115l-51 -297h276l-25 -140h-276l-68 -397h277l-25 -139h-276l-51 -297h-115l51 297h-371l-51 -297h-114l51 297h-277zM596 518h371l67 397h-370z" />
<glyph unicode="$" horiz-adv-x="1067" d="M57 281l131 65q12 -32 27.5 -62t45.5 -68t66 -65.5t90.5 -47t117.5 -19.5q76 0 136 28.5t94 74.5t51.5 97.5t17.5 104.5q0 30 -5.5 57t-13 48.5t-22.5 43t-27.5 36t-35.5 32t-38 28t-44 25.5t-44 22.5t-47.5 23t-46.5 22.5q-62 30 -106.5 55t-89.5 55t-74.5 60.5t-53 67 t-34.5 79.5t-11 93q0 70 23 127t57.5 92.5t81 60.5t87.5 36t83 15v181h111v-181q220 -12 325 -215l-112 -65q-75 164 -256 164q-59 0 -105 -14.5t-73 -36.5t-44.5 -51.5t-23.5 -55.5t-6 -53q0 -56 24 -101t72 -80.5t93.5 -60t115.5 -57.5q12 -5 18 -8q37 -17 53.5 -25 t53.5 -27t57 -32.5t52 -37.5t50 -45t40.5 -52t34 -62.5t20 -71.5t8.5 -84q0 -174 -111.5 -297.5t-285.5 -136.5v-207h-111v207q-280 18 -416 318z" />
<glyph unicode="%" horiz-adv-x="1617" d="M51 1133q0 136 95.5 231.5t232.5 95.5t232.5 -95.5t95.5 -231.5q0 -137 -95.5 -232.5t-232.5 -95.5t-232.5 95.5t-95.5 232.5zM164 1133q0 -97 63 -164.5t152 -67.5t152 67.5t63 164.5t-63 164t-152 67t-152 -67t-63 -164zM307 -43l846 1520h100l-845 -1520h-101z M911 332q0 136 95.5 231.5t232.5 95.5t232.5 -95.5t95.5 -231.5t-95.5 -232t-232.5 -96t-232.5 96t-95.5 232zM1024 332q0 -97 63 -164.5t152 -67.5t152 67.5t63 164.5t-63 164t-152 67t-152 -67t-63 -164z" />
<glyph unicode="&#x26;" horiz-adv-x="1280" d="M94 356q0 56 11.5 105t36.5 91.5t53.5 77t74 71.5t85 64.5t98.5 65.5q-43 50 -63.5 76.5t-50 71t-42 86t-12.5 86.5q0 127 94.5 205t218.5 78q72 0 128 -23.5t89 -63.5t49.5 -89.5t16.5 -104.5q0 -94 -60.5 -169.5t-202.5 -176.5l343 -428l192 227l86 -69l-209 -246 l227 -291h-143l-164 207q-74 -90 -139 -144q-71 -60 -135.5 -80t-157.5 -20q-89 0 -162.5 25t-121 65.5t-80 93t-46.5 105t-14 104.5zM225 356q0 -116 86 -205.5t211 -89.5q93 0 161 45t198 185l-363 457q-49 -34 -75 -53t-63 -48.5t-55.5 -49.5t-41.5 -49.5t-33 -56.5 t-17.5 -61.5t-7.5 -73.5zM410 1153q0 -65 43.5 -136.5t101.5 -129.5q106 66 152.5 125.5t46.5 146.5q0 67 -45.5 121.5t-116.5 54.5t-126.5 -48t-55.5 -134z" />
<glyph unicode="'" horiz-adv-x="405" d="M102 1434h201l-59 -416h-86z" />
<glyph unicode="(" horiz-adv-x="446" d="M100 539q0 242 51 506t140 487l98 -27q-158 -511 -158 -966q0 -458 158 -969l-98 -27q-89 223 -140 487.5t-51 508.5z" />
<glyph unicode=")" horiz-adv-x="446" d="M57 -430q158 511 158 969q0 455 -158 966l99 27q88 -223 139 -486.5t51 -506.5q0 -244 -51 -508.5t-139 -487.5z" />
<glyph unicode="*" horiz-adv-x="833" d="M94 1032l221 129l-221 129l51 86l222 -129v258h100v-258l221 129l51 -86l-221 -129l221 -129l-51 -86l-221 129v-258h-100v258l-222 -129z" />
<glyph unicode="+" horiz-adv-x="1228" d="M102 659v115h455v455h115v-455h454v-115h-454v-454h-115v454h-455z" />
<glyph unicode="," horiz-adv-x="518" d="M94 -274l187 503l143 -67l-256 -471z" />
<glyph unicode="-" horiz-adv-x="630" d="M86 467v123h459v-123h-459z" />
<glyph unicode="." horiz-adv-x="475" d="M143 72q0 40 27.5 67t67.5 27t67 -27t27 -67t-27 -67.5t-67 -27.5t-67.5 27.5t-27.5 67.5z" />
<glyph unicode="/" horiz-adv-x="974" d="M43 -430l774 1935h115l-774 -1935h-115z" />
<glyph unicode="0" d="M109 717q0 121 12.5 223t32.5 174.5t50.5 131t60 95.5t68 64t67.5 40t65 20.5t54.5 8.5t41.5 1t41.5 -1t54.5 -8.5t65 -20.5t67.5 -40t68 -64t60.5 -95.5t51 -131t32.5 -174.5t12.5 -223t-13 -223.5t-33 -175.5t-50.5 -131.5t-60 -95t-68.5 -63.5t-67.5 -40t-65 -20 t-54 -8t-41.5 -1t-41.5 1t-54 8t-65 20t-67 40t-68 63.5t-60 95t-50.5 131.5t-33 175.5t-13 223.5zM248 717q0 -643 313 -643t313 643t-313 643t-313 -643z" />
<glyph unicode="1" d="M299 1319l55 115h328v-1434h-139v1319h-244z" />
<glyph unicode="2" d="M102 0l342 367q112 120 174.5 190.5t117.5 141t79.5 121t37.5 102t13 112.5q0 137 -71 231.5t-203 94.5q-82 0 -148 -33t-106 -88t-61 -123t-19 -143h-139q1 76 18 147.5t55 136.5t93 113t136.5 76.5t180.5 28.5q185 0 294.5 -124t109.5 -319q0 -112 -44 -213.5 t-155 -236.5q-61 -74 -198 -218.5t-228 -248.5h616v-115h-895z" />
<glyph unicode="3" d="M102 358h138q1 -36 9.5 -72.5t30.5 -75.5t54.5 -68.5t86.5 -48.5t122 -19q142 0 232.5 85.5t90.5 221.5q0 58 -14.5 105.5t-36 78.5t-53.5 54.5t-60 36t-63 20.5t-55 10.5t-43 3.5h-64v115q36 -3 72 0q130 6 206 74t76 196q0 132 -78 208.5t-206 76.5q-60 0 -108.5 -19 t-77.5 -47t-49.5 -67t-29.5 -72t-14 -70h-129q4 51 18 100.5t45.5 103t77 94t119 66.5t164.5 26q178 0 288 -101t110 -280q0 -39 -4 -71.5t-18 -74t-37.5 -75t-67.5 -66.5t-103 -55v-4q34 -8 66 -21.5t71.5 -41.5t68.5 -65.5t49 -97.5t20 -133q0 -192 -131 -311t-336 -119 q-107 0 -191.5 33.5t-136 91t-79.5 127t-30 147.5z" />
<glyph unicode="4" d="M51 338l744 1137h32v-1022h152v-115h-152v-338h-131v338h-645zM256 453h440v690z" />
<glyph unicode="5" d="M82 242l106 59q121 -227 320 -227q87 0 153.5 32t106 87t59 124t19.5 148q0 20 -1.5 41.5t-9 57t-20 66t-37.5 64.5t-58 58t-85 39.5t-115 15.5q-186 0 -295 -107l-37 11l172 723h570v-115h-465l-107 -440q91 43 185 43q84 0 161 -28.5t141 -83.5t102 -146t38 -205 q0 -224 -131 -362t-338 -138q-287 0 -434 283z" />
<glyph unicode="6" d="M117 403q0 69 11.5 127t39 114t44.5 84t56 85l449 662l110 -66l-419 -600q74 39 174 39q185 0 304.5 -118.5t119.5 -301.5q0 -57 -12.5 -116t-44.5 -124t-80 -114.5t-127.5 -82t-178.5 -32.5q-207 0 -326.5 121t-119.5 323zM256 414q0 -144 78.5 -242t226.5 -98 q76 0 135.5 27.5t96 75t55 108t18.5 129.5q0 149 -85 234t-220 85t-220 -85.5t-85 -233.5z" />
<glyph unicode="7" d="M131 1319v115h903l-717 -1475l-112 51l637 1309h-711z" />
<glyph unicode="8" d="M123 397q0 76 24 141t65 110t91 75.5t107 44.5v4q-42 13 -80.5 36t-75 61t-58.5 98.5t-22 134.5q0 81 24.5 146.5t63.5 106.5t91 69t103.5 39.5t104.5 11.5t104.5 -11.5t103.5 -39.5t91 -69t63.5 -106.5t24.5 -146.5q0 -74 -21.5 -134.5t-58.5 -98.5t-75 -61t-80 -36v-4 q130 -32 208 -135t78 -236q0 -191 -119.5 -314.5t-318.5 -123.5q-203 0 -320.5 122.5t-117.5 315.5zM258 395q0 -140 82.5 -230.5t220.5 -90.5t220.5 90.5t82.5 230.5q0 134 -85 222t-218 88t-218 -88t-85 -222zM303 1090q0 -116 76.5 -193.5t181.5 -77.5q110 0 184 76.5 t74 194.5q0 52 -14.5 98t-43.5 85.5t-80.5 63t-119.5 23.5q-60 0 -107.5 -19.5t-75 -48.5t-45.5 -67.5t-24 -71t-6 -63.5z" />
<glyph unicode="9" d="M117 1006q0 39 6 80.5t21 88t37.5 89t58.5 81.5t80 67.5t105.5 45.5t133.5 17q207 0 327 -121.5t120 -323.5q0 -69 -11.5 -126.5t-40 -114.5t-44.5 -83t-56 -85l-448 -662l-111 66l420 600q-74 -39 -174 -39q-185 0 -304.5 118.5t-119.5 301.5zM256 1020 q0 -149 85 -234.5t220 -85.5t220 86t85 234q0 144 -78.5 242t-226.5 98q-76 0 -135.5 -27.5t-96 -75t-55 -108t-18.5 -129.5z" />
<glyph unicode=":" horiz-adv-x="475" d="M143 72q0 40 27.5 67t67.5 27t67 -27t27 -67t-27 -67.5t-67 -27.5t-67.5 27.5t-27.5 67.5zM143 817q0 40 27.5 67t67.5 27t67 -27t27 -67t-27 -67t-67 -27t-67.5 27t-27.5 67z" />
<glyph unicode=";" horiz-adv-x="518" d="M94 -274l187 503l143 -67l-256 -471zM221 817q0 40 27 67t67 27t67.5 -27t27.5 -67t-27.5 -67t-67.5 -27t-67 27t-27 67z" />
<glyph unicode="&#x3c;" horiz-adv-x="1024" d="M102 676v82l820 409v-114l-680 -336l680 -336v-115z" />
<glyph unicode="=" horiz-adv-x="1228" d="M102 524v115h1024v-115h-1024zM102 795v114h1024v-114h-1024z" />
<glyph unicode="&#x3e;" horiz-adv-x="1024" d="M102 266v115l680 336l-680 336v114l820 -409v-82z" />
<glyph unicode="?" horiz-adv-x="940" d="M100 1102q1 48 11.5 95.5t38 99t68.5 90t109 63.5t154 25q161 0 260 -89t99 -243q0 -56 -14 -101.5t-35.5 -78.5t-63 -66.5t-80 -57t-104.5 -59.5q-48 -26 -69.5 -38.5t-55.5 -34t-49 -36t-32.5 -36t-23.5 -44.5t-6 -50q0 -23 7.5 -46t25 -48.5t55 -41.5t90.5 -16 q56 0 96 17.5t59.5 46.5t27.5 56t8 54h112q0 -35 -7 -70.5t-27.5 -76t-52.5 -71t-87.5 -51t-126.5 -20.5q-134 0 -222.5 71t-88.5 181q0 54 14.5 98.5t37.5 75.5t60 60.5t71.5 50t82.5 47.5q15 8 23 12q143 78 189 131t46 146q0 58 -19.5 101t-44 63.5t-59.5 32.5t-55 14 t-41 2q-60 0 -107 -18t-74 -44.5t-45 -63.5t-25 -68t-9 -64h-121zM373 72q0 40 27 67t67 27t67 -27t27 -67t-27 -67.5t-67 -27.5t-67 27.5t-27 67.5z" />
<glyph unicode="@" horiz-adv-x="1798" d="M131 717q0 221 101.5 395t274 268.5t382.5 94.5q126 0 234.5 -26t186.5 -69.5t141 -103t102.5 -124.5t65.5 -136t37 -134.5t11 -123.5q0 -102 -35.5 -188t-94.5 -141.5t-132 -86.5t-150 -31q-140 0 -176 127q-115 -127 -278 -127q-134 0 -217.5 83t-83.5 233q0 85 32 171 t87.5 156t139.5 114t179 44q90 0 142 -28.5t85 -84.5l19 86h123l-115 -530q-16 -72 13.5 -108.5t74.5 -36.5q43 0 87.5 21.5t85 62.5t66 110t25.5 154q0 142 -52 257.5t-142 190t-208 114.5t-253 40q-144 0 -265 -52t-200.5 -140t-123.5 -204.5t-44 -246.5q0 -111 27 -207.5 t74.5 -167.5t110.5 -126.5t136.5 -89.5t150 -51.5t154.5 -17.5q174 0 320 95l59 -91q-93 -56 -181 -79t-198 -23q-164 0 -305.5 50.5t-247 144.5t-165.5 239t-60 324zM633 631q0 -106 49.5 -163.5t140.5 -57.5q74 0 134 41t94.5 105t52.5 132t18 131q0 85 -42.5 140 t-127.5 55q-73 0 -135 -34.5t-101 -90.5t-61 -123t-22 -135z" />
<glyph unicode="A" horiz-adv-x="1331" d="M23 0l643 1475l643 -1475h-144l-198 467h-602l-199 -467h-143zM414 582h504l-252 587z" />
<glyph unicode="B" horiz-adv-x="1155" d="M180 0v1434h295q42 0 76.5 -2t85 -9.5t89.5 -21t81 -39t69.5 -60t45.5 -88t18 -120.5q0 -111 -59.5 -194t-155.5 -120v-4q143 -9 236.5 -108t93.5 -258q0 -93 -30 -167t-79 -120.5t-115 -76.5t-134 -40q-49 -8 -101 -7q-20 0 -39 1h-377zM319 115h238q79 0 141.5 17.5 t101.5 46.5t65 68.5t36 79t10 83.5q0 61 -18.5 110.5t-44.5 79.5t-65.5 52t-70.5 32.5t-71 16t-55.5 6t-34.5 0.5h-232v-592zM319 821h183q13 0 26.5 0.5t45 6t58 15t58.5 29.5t54.5 47t37.5 70.5t15 97.5q0 45 -14 83.5t-46 73.5t-91.5 55t-141.5 20h-185v-498z" />
<glyph unicode="C" horiz-adv-x="1433" d="M115 717q0 165 58.5 307.5t158.5 240.5t235.5 154t286.5 56q133 0 260.5 -36t261.5 -136v-162q-224 219 -518 219q-118 0 -227 -48.5t-190.5 -132.5t-130 -205t-48.5 -257q0 -172 74.5 -318.5t212 -235.5t307.5 -89q144 0 279 57t241 156v-160q-115 -88 -251.5 -128 t-270.5 -40q-214 0 -384 101t-262.5 273.5t-92.5 383.5z" />
<glyph unicode="D" horiz-adv-x="1433" d="M180 0v1434h357q187 0 337.5 -57t246.5 -156t147 -228t51 -276q0 -67 -11.5 -134.5t-39 -139t-68 -135t-104 -121t-142 -98.5t-185.5 -65t-232 -24h-357zM319 115h203q136 0 245.5 32t184 87t124.5 132t72.5 164.5t22.5 186.5q0 275 -177 438.5t-472 163.5h-203v-1204z " />
<glyph unicode="E" horiz-adv-x="1062" d="M180 0v1434h768v-115h-629v-459h607v-115h-607v-630h629v-115h-768z" />
<glyph unicode="F" horiz-adv-x="921" d="M180 0v1434h676v-115h-537v-459h523v-115h-523v-745h-139z" />
<glyph unicode="G" horiz-adv-x="1669" d="M115 711q0 171 53 314.5t147.5 242t226 153t285.5 54.5q30 0 57.5 -1.5t76.5 -8.5t93 -19.5t100.5 -37.5t106 -58.5t103 -86.5t96.5 -118l-106 -78q-36 54 -81.5 100.5t-110 92.5t-152 73t-185.5 27q-167 0 -296.5 -87t-198 -234t-68.5 -328q0 -283 164 -460t434 -177 q125 0 230.5 44t173 116t105 162t38.5 186h-516v114h663q-1 -111 -24 -214t-76 -199.5t-130.5 -167.5t-195.5 -113.5t-264 -42.5q-221 0 -391 93t-264 264t-94 395z" />
<glyph unicode="H" horiz-adv-x="1464" d="M180 0v1434h139v-588h826v588h139v-1434h-139v731h-826v-731h-139z" />
<glyph unicode="I" horiz-adv-x="499" d="M180 0v1434h139v-1434h-139z" />
<glyph unicode="J" horiz-adv-x="823" d="M0 96l88 92q87 -114 213 -114q61 0 101.5 20t62.5 62.5t30.5 96t8.5 132.5v1049h139v-1057v-4q0 -31 -0.5 -49.5t-3.5 -55.5t-9 -61.5t-18 -59.5t-28.5 -59t-43.5 -50.5t-60.5 -42t-81 -26t-103.5 -10.5q-91 0 -159.5 32t-135.5 105z" />
<glyph unicode="K" horiz-adv-x="1169" d="M180 0v1434h139v-666l642 666h172l-680 -695l694 -739h-186l-642 696v-696h-139z" />
<glyph unicode="L" horiz-adv-x="804" d="M180 0v1434h139v-1319h463v-115h-602z" />
<glyph unicode="M" horiz-adv-x="1757" d="M86 0l195 1491l598 -1278l598 1278l194 -1491h-129l-137 1061l-526 -1118l-527 1118l-137 -1061h-129z" />
<glyph unicode="N" horiz-adv-x="1587" d="M180 0v1491l1088 -1198v1141h139v-1491l-1088 1198v-1141h-139z" />
<glyph unicode="O" horiz-adv-x="1777" d="M115 717q0 166 61 309t166 240.5t246.5 153t300.5 55.5t300.5 -55.5t246.5 -153t166 -240.5t61 -309t-61 -309t-166 -240.5t-246.5 -153t-300.5 -55.5t-300.5 55.5t-246.5 153t-166 240.5t-61 309zM262 717q0 -185 83.5 -332.5t226.5 -229t317 -81.5t317 81.5t226.5 229 t83.5 332.5t-83.5 332.5t-226.5 229t-317 81.5t-317 -81.5t-226.5 -229t-83.5 -332.5z" />
<glyph unicode="P" horiz-adv-x="1101" d="M180 0v1434h398q33 0 63 -2.5t69 -8.5t72 -18.5t68.5 -31t62.5 -47.5t49 -66.5t34 -89.5t12 -115q0 -72 -16 -130t-42 -97t-63.5 -68t-75 -45t-82.5 -25.5t-79 -12.5t-72 -3h-259v-674h-139zM319 788h252q38 0 70.5 4t76 20t73.5 43t51.5 78.5t21.5 121.5q0 43 -8.5 79.5 t-21.5 62t-34.5 46t-40 33t-45 21.5t-43.5 13t-42 6.5t-33.5 2.5h-24.5h-252v-531z" />
<glyph unicode="Q" horiz-adv-x="1777" d="M115 717q0 222 103.5 396t279.5 268t391 94q159 0 300.5 -55t246.5 -152.5t166 -240.5t61 -310q0 -171 -66 -324.5t-196 -253.5l207 -239h-144l-149 174q-93 -59 -192 -87t-234 -28q-215 0 -391 94t-279.5 268t-103.5 396zM262 717q0 -185 83.5 -332.5t226.5 -229 t317 -81.5q193 0 342 96l-311 360h143l252 -292q55 46 95 107.5t59.5 113.5t31 111t13.5 89t2 58q0 139 -49 259.5t-133.5 204t-200 131.5t-244.5 48q-174 0 -317 -81.5t-226.5 -229t-83.5 -332.5z" />
<glyph unicode="R" horiz-adv-x="1056" d="M180 0v1434h383q24 0 49.5 -2t67.5 -11t79 -24t77.5 -44.5t69 -69t47 -100.5t18.5 -136q0 -56 -12.5 -105.5t-44.5 -99t-82 -86t-129.5 -62t-182.5 -32.5l508 -662h-164l-491 659h-54v-659h-139zM319 774h144q92 0 161 18t107 44.5t60.5 65.5t29 72t6.5 73 q0 69 -19 119.5t-49 79.5t-75.5 46t-88.5 22t-99 5h-177v-545z" />
<glyph unicode="S" horiz-adv-x="1067" d="M57 281l131 65q17 -50 44 -94.5t68 -86t101 -66.5t131 -25q133 0 217.5 90t84.5 225q0 45 -9.5 81.5t-32 67.5t-46 54t-66.5 48.5t-76.5 42.5t-91.5 44q-63 30 -107.5 53.5t-98.5 62.5t-87.5 78.5t-56.5 95.5t-23 120q0 42 9.5 84t36.5 89.5t69 82.5t114 58.5t164 23.5 q275 0 375 -218l-110 -65q-31 71 -95 119.5t-163 48.5q-71 0 -124 -21.5t-80 -56.5t-39.5 -70t-12.5 -71q0 -45 16.5 -83t42.5 -65.5t66.5 -54t79.5 -46.5t89 -44q21 -9 31 -14q137 -64 194 -104q179 -125 179 -333q0 -186 -129 -312t-332 -126q-81 0 -152 22t-119 55 t-88.5 79t-63.5 85t-40 81z" />
<glyph unicode="T" horiz-adv-x="950" d="M23 1319v115h905v-115h-383v-1319h-139v1319h-383z" />
<glyph unicode="U" horiz-adv-x="1331" d="M158 535v899h139v-920q0 -15 0.5 -30t4 -47.5t10 -61.5t19.5 -67t31 -69t46.5 -63t63.5 -53.5t85 -35t109 -13.5q75 0 135 22t97.5 54.5t65 80t40.5 86.5t20.5 86.5t8.5 68.5t1 42v920h140v-899q0 -27 -1 -51t-6 -68.5t-14 -82.5t-27.5 -86t-43.5 -86.5t-64 -77.5 t-87.5 -65t-116.5 -42.5t-148 -16.5t-148 16.5t-116.5 42.5t-87.5 65t-64 77.5t-43.5 86.5t-27.5 86t-14 82.5t-6 68.5t-1 51z" />
<glyph unicode="V" horiz-adv-x="1163" d="M23 1434h151l408 -1133l407 1133h152l-559 -1491z" />
<glyph unicode="W" horiz-adv-x="1921" d="M14 1434h158l354 -1133l435 1174l434 -1174l354 1133h158l-510 -1491l-436 1196l-437 -1196z" />
<glyph unicode="X" horiz-adv-x="1036" d="M14 0l432 731l-399 703h156l315 -586l316 586h155l-399 -703l432 -731h-156l-348 623l-348 -623h-156z" />
<glyph unicode="Y" horiz-adv-x="1077" d="M14 1434h156l369 -648l368 648h156l-455 -775v-659h-139v659z" />
<glyph unicode="Z" horiz-adv-x="1132" d="M29 0l819 1319h-733v115h960l-817 -1319h817v-115h-1046z" />
<glyph unicode="[" horiz-adv-x="655" d="M180 -430v1935h418v-114h-287v-1706h287v-115h-418z" />
<glyph unicode="\" horiz-adv-x="974" d="M43 1505h115l774 -1935h-115z" />
<glyph unicode="]" horiz-adv-x="655" d="M57 -315h287v1706h-287v114h418v-1935h-418v115z" />
<glyph unicode="^" horiz-adv-x="983" d="M82 1024l319 410h181l319 -410h-139l-270 340l-271 -340h-139z" />
<glyph unicode="_" horiz-adv-x="1024" d="M0 -315h1024v-115h-1024v115z" />
<glyph unicode="`" horiz-adv-x="512" d="M37 1305h201l151 -258h-115z" />
<glyph unicode="a" horiz-adv-x="1150" d="M94 444q0 209 130 345.5t335 136.5q221 0 326 -195v158h114v-889h-114v152q-52 -93 -140 -141t-188 -48q-138 0 -244.5 64.5t-162.5 173.5t-56 243zM225 444q0 -161 91.5 -272t240.5 -111q143 0 235.5 105.5t92.5 277.5q0 161 -90 272t-234 111q-146 0 -241 -108.5 t-95 -274.5z" />
<glyph unicode="b" horiz-adv-x="1150" d="M152 0v1505h122v-760q107 181 324 181q204 0 331.5 -133.5t127.5 -348.5q0 -207 -124.5 -344t-330.5 -137q-114 0 -200 51.5t-136 137.5v-152h-114zM266 444q0 -178 99 -280.5t237 -102.5q150 0 237 108.5t87 274.5q0 55 -11.5 108t-37.5 103.5t-64.5 88t-97 60.5 t-129.5 23q-142 0 -231 -111t-89 -272z" />
<glyph unicode="c" horiz-adv-x="935" d="M94 444q0 213 143.5 347.5t364.5 134.5q169 0 277 -76v-121q-82 58 -143.5 78t-125.5 20q-177 0 -281 -110t-104 -273q0 -171 107 -277t266 -106q153 0 281 111v-129q-130 -80 -275 -80q-221 0 -365.5 135t-144.5 346z" />
<glyph unicode="d" horiz-adv-x="1150" d="M94 444q0 207 131.5 344.5t335.5 137.5q215 0 316 -181v760h122v-1505h-114v152q-52 -93 -140 -141t-188 -48q-87 0 -168.5 30t-148 87.5t-106.5 151.5t-40 212zM225 444q0 -162 91 -272.5t241 -110.5q144 0 236 105t92 278q0 161 -90.5 272t-233.5 111q-84 0 -150.5 -35 t-105.5 -91.5t-59.5 -122.5t-20.5 -134z" />
<glyph unicode="e" horiz-adv-x="1054" d="M94 444q0 96 30 182t86.5 153.5t144.5 107t196 39.5q88 0 159.5 -29t117 -74t76.5 -103.5t44 -115t13 -110.5v-60h-736v-12q0 -61 19 -120q21 -65 60 -119.5t103.5 -88t143.5 -33.5q211 0 315 220l95 -48q-136 -270 -410 -270q-86 0 -161 27t-128.5 73.5t-92 107.5 t-57 130.5t-18.5 142.5zM236 532h602q-3 116 -80.5 205.5t-204.5 89.5q-125 0 -211.5 -81.5t-105.5 -213.5z" />
<glyph unicode="f" horiz-adv-x="532" d="M37 791v98h143v397q0 35 5 66t18.5 63.5t35.5 55.5t59.5 38t86.5 15q69 0 119 -19v-104q-47 24 -94 24q-34 0 -57 -15.5t-33 -40.5t-13.5 -45.5t-3.5 -41.5v-393h201v-98h-201v-791h-123v791h-143z" />
<glyph unicode="g" horiz-adv-x="1150" d="M94 444q0 208 129.5 345t337.5 137q225 0 324 -195v158h114v-860q0 -224 -114.5 -356t-325.5 -132q-84 0 -152.5 18t-114 46t-79 68t-51.5 78.5t-29 82.5h135q25 -97 106 -145.5t185 -48.5q46 0 86 8.5t84.5 34t75.5 66.5t51.5 113t20.5 167v108q-112 -174 -320 -174 q-87 0 -168 30t-147.5 87.5t-107 151.5t-40.5 212zM225 444q0 -161 91.5 -272t240.5 -111q143 0 235.5 105.5t92.5 277.5q0 161 -90 272t-234 111q-84 0 -150.5 -35t-105.5 -91.5t-59.5 -122.5t-20.5 -134z" />
<glyph unicode="h" horiz-adv-x="1034" d="M152 0v1505h122v-764q17 34 41 63.5t60 58.5t87 46t111 17q49 0 90.5 -10.5t71 -27.5t53.5 -42t39 -49.5t26.5 -54.5t17 -54t8.5 -50.5t3.5 -40.5t0.5 -28v-569h-123v553q0 32 -2 57.5t-8 60t-20 60t-35 48.5t-56 35.5t-80 12.5q-124 0 -204.5 -104t-80.5 -260v-463h-122 z" />
<glyph unicode="i" horiz-adv-x="425" d="M119 1190q0 40 27 67t67 27t67 -27t27 -67t-27 -67t-67 -27t-67 27t-27 67zM152 0v889h122v-889h-122z" />
<glyph unicode="j" horiz-adv-x="425" d="M119 1190q0 40 27 67t67 27t67 -27t27 -67t-27 -67t-67 -27t-67 27t-27 67zM152 -430v1319h122v-1319h-122z" />
<glyph unicode="k" horiz-adv-x="944" d="M152 0v1505h122v-977l398 361h168l-437 -383l519 -506h-179l-428 430l-41 -35v-395h-122z" />
<glyph unicode="l" horiz-adv-x="425" d="M152 0v1505h122v-1505h-122z" />
<glyph unicode="m" horiz-adv-x="1556" d="M152 0v889h122v-154q110 191 301 191q101 0 164 -54t82 -133q100 187 312 187q55 0 99.5 -16t72.5 -38.5t48.5 -57.5t30 -64t15 -66.5t6 -56t0.5 -41.5v-586h-123v586q0 241 -176 241q-110 0 -188 -96t-78 -256v-475h-123v580q0 247 -172 247q-77 0 -140.5 -52t-97 -132 t-33.5 -168v-475h-122z" />
<glyph unicode="n" horiz-adv-x="1034" d="M152 0v889h122v-148q17 34 41 63.5t60 58.5t87 46t111 17q49 0 90.5 -10.5t71 -27.5t53.5 -42t39 -49.5t26.5 -54.5t17 -54t8.5 -50.5t3.5 -40.5t0.5 -28v-569h-123v553q0 32 -2 57.5t-8 60t-20 60t-35 48.5t-56 35.5t-80 12.5q-124 0 -204.5 -104t-80.5 -260v-463h-122z " />
<glyph unicode="o" horiz-adv-x="1155" d="M94 444q0 208 136 345t348 137t347.5 -137t135.5 -345t-135.5 -344.5t-347.5 -136.5t-348 136.5t-136 344.5zM225 444q0 -169 103 -276t250 -107q146 0 249 107t103 276t-103 276t-249 107q-147 0 -250 -107t-103 -276z" />
<glyph unicode="p" horiz-adv-x="1150" d="M152 -430v1319h114v-158q105 195 332 195q204 0 331.5 -133.5t127.5 -348.5q0 -207 -124.5 -344t-330.5 -137q-209 0 -328 174v-567h-122zM266 444q0 -178 99 -280.5t237 -102.5q150 0 237 108.5t87 274.5q0 55 -11.5 108t-37.5 103.5t-64.5 88t-97 60.5t-129.5 23 q-142 0 -231 -111t-89 -272z" />
<glyph unicode="q" horiz-adv-x="1150" d="M94 444q0 207 131.5 344.5t335.5 137.5q225 0 324 -195v158h114v-1319h-122v567q-112 -174 -320 -174q-87 0 -168.5 30t-148 87.5t-106.5 151.5t-40 212zM225 444q0 -162 91 -272.5t241 -110.5q144 0 236 105t92 278q0 161 -90.5 272t-233.5 111q-84 0 -150.5 -35 t-105.5 -91.5t-59.5 -122.5t-20.5 -134z" />
<glyph unicode="r" horiz-adv-x="665" d="M152 0v889h122v-187q64 120 126.5 163.5t134.5 43.5q56 0 108 -20l-37 -115q-41 23 -88 23q-51 0 -98 -35t-78 -86.5t-49.5 -110t-18.5 -106.5v-459h-122z" />
<glyph unicode="s" horiz-adv-x="782" d="M66 182l100 54q24 -74 81.5 -124.5t141.5 -50.5q94 0 140 51.5t46 125.5q0 76 -52 116t-158 72q-34 10 -49.5 15t-48.5 18t-50.5 24.5t-42 31.5t-37 41.5t-22 52.5t-9.5 67q0 113 80.5 181.5t204.5 68.5q190 0 277 -183l-93 -49q-26 62 -78 97.5t-116 35.5 q-69 0 -110.5 -40t-41.5 -101q0 -19 3 -34.5t11.5 -28.5t15.5 -22.5t23 -19t25.5 -15t32 -13.5t33 -11.5t38 -12t38.5 -11.5q122 -39 187.5 -102.5t65.5 -173.5q0 -45 -15.5 -89.5t-49.5 -89t-101.5 -72.5t-158.5 -28q-223 0 -311 219z" />
<glyph unicode="t" horiz-adv-x="512" d="M37 791v98h143v344h123v-344h172v-98h-172v-791h-123v791h-143z" />
<glyph unicode="u" horiz-adv-x="1044" d="M152 365v524h122v-539q0 -39 4.5 -73.5t20.5 -75.5t41.5 -70.5t72.5 -49.5t109 -20t109 20t72.5 49.5t41.5 70.5t20.5 75.5t4.5 73.5v539h123v-524q0 -25 -1.5 -48t-9 -66t-21 -78.5t-41.5 -76t-66 -68.5t-98 -46.5t-134 -18.5t-134 18.5t-98 46.5t-65.5 69t-41 76 t-21 78t-9 66t-1.5 48z" />
<glyph unicode="v" horiz-adv-x="888" d="M14 889h133l297 -674l297 674h133l-430 -934z" />
<glyph unicode="w" horiz-adv-x="1421" d="M14 889h144l272 -645l281 733l280 -733l273 645h143l-410 -934l-286 741l-287 -741z" />
<glyph unicode="x" horiz-adv-x="854" d="M23 0l329 457l-315 432h158l237 -346l221 346h144l-295 -430l329 -459h-155l-252 373l-244 -373h-157z" />
<glyph unicode="y" horiz-adv-x="927" d="M23 889h139l334 -752l284 752h125l-524 -1319h-133l184 438z" />
<glyph unicode="z" horiz-adv-x="870" d="M37 0l567 791h-526v98h727l-559 -791h573v-98h-782z" />
<glyph unicode="{" horiz-adv-x="677" d="M102 449v108q53 10 92 41.5t57.5 65.5t29.5 79.5t12.5 70.5t1.5 52q0 41 -4 119t-4 115q0 48 5.5 88t24 85.5t49 78.5t84 58.5t125.5 33.5v-94q-151 -17 -151 -207q0 -47 3 -102.5t3 -137.5q0 -38 -2 -66t-9 -69.5t-23.5 -74.5t-42 -68.5t-67.5 -65t-98 -51.5v-10 q66 -26 113.5 -65t72 -77t38 -89t16 -85t2.5 -80q0 -82 -3 -137t-3 -102q0 -190 151 -207v-94q-72 8 -125.5 33.5t-84 58.5t-49 78.5t-24 85.5t-5.5 88q0 36 4 114t4 119q0 27 -1.5 52t-12.5 71t-29.5 80t-57.5 65.5t-92 41.5z" />
<glyph unicode="|" horiz-adv-x="319" d="M102 -459v2157h115v-2157h-115z" />
<glyph unicode="}" horiz-adv-x="677" d="M102 -344q41 5 70.5 23.5t45 40.5t24 52.5t10.5 50t2 40.5q0 47 -3 102t-3 137q0 38 2 66t9 69.5t23 75t41.5 69t67.5 65t98 51.5v10q-56 22 -98 51.5t-67.5 65t-41.5 68.5t-23 74.5t-9 69.5t-2 66q0 82 3 137.5t3 102.5q0 21 -2 40.5t-10.5 50t-24 52.5t-45 40.5 t-70.5 23.5v94q289 -31 289 -344q0 -37 -4 -115t-4 -119q0 -28 1.5 -52.5t12 -70t29 -79.5t57.5 -65.5t92 -41.5v-108q-53 -10 -92 -41.5t-57.5 -65.5t-29 -80t-12 -70.5t-1.5 -52.5q0 -41 4 -119t4 -114q0 -313 -289 -344v94z" />
<glyph unicode="~" horiz-adv-x="1228" d="M102 639v115q45 47 104.5 74.5t121.5 27.5q39 0 93 -13.5t88 -25.5t116 -43q12 -5 38 -14.5t36.5 -13.5t32 -12t30.5 -11t26.5 -9t26.5 -8t22.5 -5.5t23 -5t20 -2.5t20.5 -1q117 0 225 103v-115q-99 -102 -225 -102q-40 0 -92 12.5t-89.5 25.5t-115.5 43q-12 5 -38 14.5 t-36.5 13.5t-32 12t-30.5 11t-26.5 9t-26.5 8t-22.5 5.5t-23 5t-20 2.5t-20.5 1q-119 0 -226 -102z" />
<glyph unicode="&#xa9;" horiz-adv-x="1720" d="M102 717q0 153 60.5 293.5t162 242t242 162t293.5 60.5t293.5 -60.5t242 -162t162 -242t60.5 -293.5t-60.5 -293.5t-162 -242t-242 -162t-293.5 -60.5t-293.5 60.5t-242 162t-162 242t-60.5 293.5zM217 717q0 -174 86.5 -322t234.5 -234.5t322 -86.5t322 86.5 t234.5 234.5t86.5 322t-86.5 322t-234.5 234.5t-322 86.5t-322 -86.5t-234.5 -234.5t-86.5 -322zM424 717q0 124 55.5 231t163.5 174.5t246 67.5q76 0 140 -17.5t142 -60.5v-160q-148 95 -282 95q-132 0 -212.5 -93.5t-80.5 -236.5q0 -147 80 -238.5t213 -91.5q142 0 282 88 v-156q-131 -75 -282 -75q-88 0 -163.5 26.5t-130.5 71.5t-94 105.5t-58 129t-19 140.5z" />
<glyph unicode="&#xab;" horiz-adv-x="888" d="M86 451l307 432l86 -58l-268 -374l268 -375l-86 -58zM401 451l308 432l86 -58l-269 -374l269 -375l-86 -58z" />
<glyph unicode="&#xad;" horiz-adv-x="630" d="M86 467v123h459v-123h-459z" />
<glyph unicode="&#xae;" horiz-adv-x="1732" d="M109 717q0 153 60.5 293.5t162 242t241.5 162t293 60.5t293.5 -60.5t242 -162t162 -242t60.5 -293.5t-60.5 -293.5t-162 -242t-242 -162t-293.5 -60.5t-293 60.5t-241.5 162t-162 242t-60.5 293.5zM223 717q0 -174 86.5 -322t234.5 -234.5t322 -86.5t322 86.5 t234.5 234.5t86.5 322t-86.5 322t-234.5 234.5t-322 86.5t-322 -86.5t-234.5 -234.5t-86.5 -322zM588 272v889h336q26 0 54.5 -4.5t66 -19.5t65.5 -39.5t48 -70t20 -105.5q0 -106 -72.5 -171t-157.5 -65h-20l280 -414h-168l-270 410h-39v-410h-143zM731 797h123 q97 0 133.5 33t36.5 92q0 60 -31 92.5t-119 32.5h-143v-250z" />
<glyph unicode="&#xbb;" horiz-adv-x="888" d="M94 74l268 375l-268 374l86 58l307 -432l-307 -433zM410 74l268 375l-268 374l86 58l307 -432l-307 -433z" />
<glyph unicode="&#x401;" horiz-adv-x="1062" d="M180 0v1434h768v-115h-629v-459h607v-115h-607v-630h629v-115h-768zM313 1638q0 40 27.5 67.5t67.5 27.5t67 -27.5t27 -67.5t-27 -67t-67 -27t-67.5 27t-27.5 67zM643 1638q0 40 27 67.5t67 27.5t67 -27.5t27 -67.5t-27 -67t-67 -27t-67 27t-27 67z" />
<glyph unicode="&#x402;" horiz-adv-x="1411" d="M23 1319v115h968v-115h-442v-494q145 45 278 45q220 0 355 -119t135 -327q0 -116 -36.5 -200t-105 -133t-157.5 -71t-203 -20v115h80q51 0 98 16.5t89 51t67 96.5t25 145q0 164 -97.5 248t-251.5 84q-143 0 -276 -54v-702h-139v1319h-387z" />
<glyph unicode="&#x403;" horiz-adv-x="833" d="M180 0v1434h631v-115h-492v-1319h-139zM254 1516l209 227h201l-275 -227h-135z" />
<glyph unicode="&#x404;" horiz-adv-x="1376" d="M115 717q0 175 56.5 318.5t156 239.5t235 148t293.5 52q250 0 449 -119v-154q-196 158 -445 158q-149 0 -282 -68t-220 -197.5t-92 -291.5h867v-115h-871q4 -132 54 -247.5t131 -195t187.5 -125.5t221.5 -46q230 0 449 155v-155q-212 -115 -451 -115q-163 0 -302 58.5 t-234.5 160t-149 241t-53.5 298.5z" />
<glyph unicode="&#x405;" horiz-adv-x="1067" d="M57 281l131 65q17 -50 44 -94.5t68 -86t101 -66.5t131 -25q133 0 217.5 90t84.5 225q0 45 -9.5 81.5t-32 67.5t-46 54t-66.5 48.5t-76.5 42.5t-91.5 44q-63 30 -107.5 53.5t-98.5 62.5t-87.5 78.5t-56.5 95.5t-23 120q0 42 9.5 84t36.5 89.5t69 82.5t114 58.5t164 23.5 q275 0 375 -218l-110 -65q-31 71 -95 119.5t-163 48.5q-71 0 -124 -21.5t-80 -56.5t-39.5 -70t-12.5 -71q0 -45 16.5 -83t42.5 -65.5t66.5 -54t79.5 -46.5t89 -44q21 -9 31 -14q137 -64 194 -104q179 -125 179 -333q0 -186 -129 -312t-332 -126q-81 0 -152 22t-119 55 t-88.5 79t-63.5 85t-40 81z" />
<glyph unicode="&#x406;" horiz-adv-x="499" d="M180 0v1434h139v-1434h-139z" />
<glyph unicode="&#x407;" horiz-adv-x="499" d="M31 1638q0 40 27 67.5t67 27.5t67 -27.5t27 -67.5t-27 -67t-67 -27t-67 27t-27 67zM180 0v1434h139v-1434h-139zM281 1638q0 40 27 67.5t67 27.5t67 -27.5t27 -67.5t-27 -67t-67 -27t-67 27t-27 67z" />
<glyph unicode="&#x408;" horiz-adv-x="845" d="M180 96l88 92q87 -114 213 -114q61 0 101.5 20t62.5 62.5t30.5 96t8.5 132.5v1049h139v-1057v-4q0 -31 -0.5 -49.5t-3.5 -55.5t-9 -61.5t-18 -59.5t-28.5 -59t-43.5 -50.5t-60.5 -42t-81 -26t-103.5 -10.5q-91 0 -159.5 32t-135.5 105z" />
<glyph unicode="&#x409;" horiz-adv-x="1957" d="M14 0v115q55 -11 78 -11q53 0 93.5 15.5t66.5 46t43 67.5t26 90.5t12 102.5t3 115v893h797v-603h237q119 0 209 -25.5t143 -64.5t86 -95.5t44.5 -110t11.5 -115.5q0 -420 -553 -420h-318v1319h-518v-772q0 -67 -3 -120.5t-12 -113.5t-24 -105.5t-41.5 -88.5t-62.5 -70.5 t-88 -44t-117 -16.5q-58 0 -113 12zM1133 115h200q93 0 163.5 19t112 48t67.5 71t35 81.5t9 85.5q0 62 -17.5 111.5t-41.5 80t-62.5 52.5t-67 32t-69.5 15t-55.5 5.5t-38.5 0.5h-235v-602z" />
<glyph unicode="&#x40a;" horiz-adv-x="2109" d="M180 0v1434h139v-603h826v603h139v-603h238q119 0 209 -25.5t143 -64.5t86 -95.5t44 -110t11 -115.5q0 -420 -553 -420h-317v717h-826v-717h-139zM1284 115h201q93 0 163.5 19t112 48t67.5 71t35 81.5t9 85.5q0 62 -17.5 111.5t-41.5 80t-62.5 52.5t-67 32t-69.5 15 t-55.5 5.5t-38.5 0.5h-236v-602z" />
<glyph unicode="&#x40b;" horiz-adv-x="1456" d="M23 1319v115h970v-115h-444v-502q166 12 193 13t128 1q75 0 136.5 -7t106 -22t78 -33.5t55 -45.5t35.5 -53t20.5 -62.5t9 -67.5t2.5 -73v-467h-139v434q0 82 -18.5 138t-42 84.5t-72.5 42.5t-80.5 16t-96.5 2h-16q-81 0 -107.5 -1.5t-191.5 -13.5v-702h-139v1319h-387z " />
<glyph unicode="&#x40c;" horiz-adv-x="1169" d="M180 0v1434h139v-666l642 666h172l-680 -695l694 -739h-186l-642 696v-696h-139zM422 1516l209 227h200l-274 -227h-135z" />
<glyph unicode="&#x40e;" horiz-adv-x="1148" d="M29 1434h157l435 -854l387 854h141l-655 -1434h-142l199 434zM279 1698l112 45q16 -51 60 -86t122 -35t122.5 35t60.5 86l112 -45q-17 -38 -28 -53q-87 -129 -267 -129q-39 0 -76 7.5t-80 25.5t-79.5 56t-58.5 93z" />
<glyph unicode="&#x40f;" horiz-adv-x="1468" d="M180 0v1434h139v-1319h830v1319h139v-1434h-489v-348h-129v348h-490z" />
<glyph unicode="&#x410;" horiz-adv-x="1331" d="M23 0l643 1475l643 -1475h-144l-198 467h-602l-199 -467h-143zM414 582h504l-252 587z" />
<glyph unicode="&#x411;" horiz-adv-x="1142" d="M180 0v1434h721v-115h-582v-473h236q43 0 81.5 -3t90.5 -13.5t94.5 -27.5t86 -49t73.5 -75t49 -107.5t19 -144.5q0 -85 -23 -153.5t-57.5 -112t-87.5 -75.5t-99.5 -48t-107 -25t-96.5 -10.5t-82 -1.5h-316zM319 115h199q93 0 163.5 19.5t112 49.5t67.5 73t35 83t9 86 q0 63 -17.5 114t-42 82t-62.5 53.5t-67.5 33t-69.5 16t-55.5 6t-37.5 0.5h-234v-616z" />
<glyph unicode="&#x412;" horiz-adv-x="1155" d="M180 0v1434h295q42 0 76.5 -2t85 -9.5t89.5 -21t81 -39t69.5 -60t45.5 -88t18 -120.5q0 -111 -59.5 -194t-155.5 -120v-4q143 -9 236.5 -108t93.5 -258q0 -93 -30 -167t-79 -120.5t-115 -76t-134 -40t-140 -6.5h-377zM319 115h238q79 0 141.5 17.5t101.5 46.5t65 68.5 t36 79t10 83.5q0 61 -18.5 110.5t-44.5 79.5t-65.5 52t-70.5 32.5t-71 16t-55.5 6t-34.5 0.5h-232v-592zM319 821h183q13 0 26.5 0.5t45 6t58 15t58.5 29.5t54.5 47t37.5 70.5t15 97.5q0 45 -14 83.5t-46 73.5t-91.5 55t-141.5 20h-185v-498z" />
<glyph unicode="&#x413;" horiz-adv-x="833" d="M180 0v1434h631v-115h-492v-1319h-139z" />
<glyph unicode="&#x414;" horiz-adv-x="1306" d="M23 115q137 -9 209.5 142t72.5 427v750h801v-1319h172v-402h-129v287h-997v-287h-129v402zM279 115h688v1204h-523v-635q0 -226 -33 -354.5t-132 -214.5z" />
<glyph unicode="&#x415;" horiz-adv-x="1062" d="M180 0v1434h768v-115h-629v-459h607v-115h-607v-630h629v-115h-768z" />
<glyph unicode="&#x416;" horiz-adv-x="1732" d="M23 0l641 733l-605 701h172l566 -674v674h139v-674l565 674h172l-604 -701l641 -733h-186l-588 702v-702h-139v702l-588 -702h-186z" />
<glyph unicode="&#x417;" horiz-adv-x="1118" d="M43 262l119 62q43 -104 135.5 -177t210.5 -73q152 0 252 91t100 245q0 146 -99 228.5t-265 82.5h-146v115h142q44 0 83.5 7t79.5 25.5t68.5 47.5t46.5 77t18 111q0 59 -16.5 105.5t-44.5 72.5t-56.5 43.5t-62 24t-50 8.5t-30.5 2q-45 0 -83.5 -7t-80.5 -25t-80.5 -54 t-70.5 -88l-109 71q145 218 441 218q166 0 276.5 -102t110.5 -263q0 -122 -64 -210.5t-163 -115.5v-6q126 -23 212.5 -123t86.5 -258q0 -111 -42.5 -197.5t-114 -137.5t-158 -77t-181.5 -26q-311 0 -465 303z" />
<glyph unicode="&#x418;" horiz-adv-x="1478" d="M180 -57v1491h139v-1135l979 1192v-1491h-139v1135z" />
<glyph unicode="&#x419;" horiz-adv-x="1478" d="M180 -57v1491h139v-1135l979 1192v-1491h-139v1135zM444 1698l113 45q16 -51 60 -86t122 -35t122.5 35t60.5 86l112 -45q-22 -55 -59 -93t-79.5 -56t-80 -25.5t-76.5 -7.5t-76.5 7.5t-80 25.5t-79.5 56t-59 93z" />
<glyph unicode="&#x41a;" horiz-adv-x="1169" d="M180 0v1434h139v-666l642 666h172l-680 -695l694 -739h-186l-642 696v-696h-139z" />
<glyph unicode="&#x41b;" horiz-adv-x="1312" d="M14 0v115q39 -13 78 -13q53 0 93.5 15t66.5 46t43 68t26 90.5t12 103t3 116.5v893h797v-1434h-140v1319h-518v-772q0 -67 -3 -120.5t-12 -113.5t-24 -105.5t-41.5 -88.5t-62.5 -70.5t-88 -44t-117 -16.5q-58 0 -113 12z" />
<glyph unicode="&#x41c;" horiz-adv-x="1757" d="M86 0l195 1491l598 -1278l598 1278l194 -1491h-129l-137 1061l-526 -1118l-527 1118l-137 -1061h-129z" />
<glyph unicode="&#x41d;" horiz-adv-x="1464" d="M180 0v1434h139v-588h826v588h139v-1434h-139v731h-826v-731h-139z" />
<glyph unicode="&#x41e;" horiz-adv-x="1777" d="M115 717q0 166 61 309t166 240.5t246.5 153t300.5 55.5t300.5 -55.5t246.5 -153t166 -240.5t61 -309t-61 -309t-166 -240.5t-246.5 -153t-300.5 -55.5t-300.5 55.5t-246.5 153t-166 240.5t-61 309zM262 717q0 -185 83.5 -332.5t226.5 -229t317 -81.5t317 81.5t226.5 229 t83.5 332.5t-83.5 332.5t-226.5 229t-317 81.5t-317 -81.5t-226.5 -229t-83.5 -332.5z" />
<glyph unicode="&#x41f;" horiz-adv-x="1464" d="M180 0v1434h1104v-1434h-139v1319h-826v-1319h-139z" />
<glyph unicode="&#x420;" horiz-adv-x="1101" d="M180 0v1434h398q33 0 63 -2.5t69 -8.5t72 -18.5t68.5 -31t62.5 -47.5t49 -66.5t34 -89.5t12 -115q0 -72 -16 -130t-42 -97t-63.5 -68t-75 -45t-82.5 -25.5t-79 -12.5t-72 -3h-259v-674h-139zM319 788h252q38 0 70.5 4t76 20t73.5 43t51.5 78.5t21.5 121.5q0 43 -8.5 79.5 t-21.5 62t-34.5 46t-40 33t-45 21.5t-43.5 13t-42 6.5t-33.5 2.5h-24.5h-252v-531z" />
<glyph unicode="&#x421;" horiz-adv-x="1433" d="M115 717q0 165 58.5 307.5t158.5 240.5t235.5 154t286.5 56q133 0 260.5 -36t261.5 -136v-162q-224 219 -518 219q-118 0 -227 -48.5t-190.5 -132.5t-130 -205t-48.5 -257q0 -172 74.5 -318.5t212 -235.5t307.5 -89q144 0 279 57t241 156v-160q-115 -88 -251.5 -128 t-270.5 -40q-214 0 -384 101t-262.5 273.5t-92.5 383.5z" />
<glyph unicode="&#x422;" horiz-adv-x="950" d="M23 1319v115h905v-115h-383v-1319h-139v1319h-383z" />
<glyph unicode="&#x423;" horiz-adv-x="1148" d="M29 1434h157l435 -854l387 854h141l-655 -1434h-142l199 434z" />
<glyph unicode="&#x424;" horiz-adv-x="1773" d="M100 760q0 254 177.5 406.5t480.5 152.5h59v172h139v-172h60q303 0 480 -152.5t177 -406.5q0 -89 -23 -170t-74.5 -152.5t-127 -123.5t-186 -82.5t-246.5 -30.5h-60v-201h-139v201h-59q-136 0 -247 30.5t-186 82.5t-126.5 123.5t-75 152.5t-23.5 170zM248 760 q0 -127 40.5 -214.5t119.5 -136t177 -70t232 -24.5v889q-135 -2 -237.5 -27.5t-164.5 -66.5t-100.5 -99.5t-52.5 -118.5t-14 -132zM956 315q106 3 188.5 16t156.5 44t122 80t75.5 126t27.5 179q0 72 -14 132t-53 118.5t-101 99.5t-164.5 66.5t-237.5 27.5v-889z" />
<glyph unicode="&#x425;" horiz-adv-x="1036" d="M14 0l432 731l-399 703h156l315 -586l316 586h155l-399 -703l432 -731h-156l-348 623l-348 -623h-156z" />
<glyph unicode="&#x426;" horiz-adv-x="1464" d="M180 0v1434h139v-1319h811v1319h140v-1319h172v-402h-129v287h-1133z" />
<glyph unicode="&#x427;" horiz-adv-x="1224" d="M143 997v437h140v-406q0 -54 3.5 -89.5t15.5 -70t33.5 -55.5t57.5 -37.5t88 -23.5t125 -7q104 0 299 15v674h139v-1434h-139v645q-173 -14 -321 -14q-105 0 -183.5 14t-125 44.5t-75 60t-40 79.5t-14.5 81.5t-3 86.5z" />
<glyph unicode="&#x428;" horiz-adv-x="2031" d="M180 0v1434h139v-1319h627v1319h139v-1319h627v1319h139v-1434h-1671z" />
<glyph unicode="&#x429;" horiz-adv-x="2203" d="M180 0v1434h139v-1319h627v1319h139v-1319h627v1319h139v-1319h172v-402h-129v287h-1714z" />
<glyph unicode="&#x42a;" horiz-adv-x="1329" d="M23 1319v115h481v-603h237q119 0 209 -25.5t143 -64.5t86 -95.5t44.5 -110t11.5 -115.5q0 -420 -553 -420h-317v1319h-342zM504 115h201q93 0 163.5 19t112 48t67.5 71t35 81.5t9 85.5q0 45 -8.5 84t-32.5 79.5t-62 69t-101.5 46.5t-146.5 18h-237v-602z" />
<glyph unicode="&#x42b;" horiz-adv-x="1527" d="M180 0v1434h139v-603h240q44 0 83 -3t91 -13t94 -27.5t85 -48.5t72.5 -73t48 -105t18.5 -141q0 -420 -551 -420h-320zM319 115h203q385 0 385 305q0 78 -26 135t-62 87.5t-88 48t-91 22t-83 4.5h-238v-602zM1208 0v1434h140v-1434h-140z" />
<glyph unicode="&#x42c;" horiz-adv-x="1144" d="M180 0v1434h139v-603h238q119 0 209 -25.5t143 -64.5t86 -95.5t44.5 -110t11.5 -115.5q0 -420 -553 -420h-318zM319 115h201q93 0 163.5 19t112 48t67.5 71t35 81.5t9 85.5q0 62 -17.5 111.5t-41.5 80t-62.5 52.5t-67 32t-69.5 15t-55.5 5.5t-38.5 0.5h-236v-602z" />
<glyph unicode="&#x42d;" horiz-adv-x="1390" d="M86 74v155q219 -155 449 -155q115 0 221.5 46t187.5 125.5t130.5 195t53.5 247.5h-870v115h866q-5 162 -92 291.5t-220 197.5t-282 68q-248 0 -444 -158v154q109 66 217 92.5t234 26.5q157 0 292.5 -52t234.5 -148t155.5 -240t56.5 -318q0 -159 -53.5 -298.5t-149 -241 t-234.5 -160t-302 -58.5q-239 0 -451 115z" />
<glyph unicode="&#x42e;" horiz-adv-x="2158" d="M180 0v1434h139v-633h181q6 99 41.5 195.5t101.5 183t155 152t211 104.5t261 39q215 0 391 -94t279.5 -268t103.5 -396t-103.5 -396t-279.5 -268t-391 -94q-153 0 -281.5 44.5t-215 117t-148.5 168.5t-92 195.5t-35 201.5h-179v-686h-139zM645 717q0 -141 49 -261.5 t133.5 -204t199 -130.5t243.5 -47q174 0 316.5 80.5t226 228t83.5 334.5t-83.5 334.5t-226 228t-316.5 80.5q-129 0 -243.5 -47t-199 -130.5t-133.5 -204t-49 -261.5z" />
<glyph unicode="&#x42f;" horiz-adv-x="1126" d="M115 1022q0 31 4.5 63.5t18.5 74.5t35.5 79t60.5 73.5t89 62.5t124 42.5t163 16.5h336v-1434h-139v631h-127l-379 -631h-158l389 637q-177 -3 -297 102.5t-120 282.5zM258 1032q0 -287 340 -287h209v574h-195q-43 0 -81 -4t-91.5 -21t-90.5 -46t-64 -84.5t-27 -131.5z " />
<glyph unicode="&#x430;" horiz-adv-x="1150" d="M94 444q0 209 130 345.5t335 136.5q221 0 326 -195v158h114v-889h-114v152q-52 -93 -140 -141t-188 -48q-138 0 -244.5 64.5t-162.5 173.5t-56 243zM225 444q0 -161 91.5 -272t240.5 -111q143 0 235.5 105.5t92.5 277.5q0 161 -90 272t-234 111q-146 0 -241 -108.5 t-95 -274.5z" />
<glyph unicode="&#x431;" horiz-adv-x="1155" d="M94 573q0 161 24 287t77.5 229t145 171t220.5 100q44 11 102 22t91 18t69.5 19.5t62 33t44.5 52.5h131q-12 -27 -27 -50.5t-28.5 -41.5t-33 -34t-33 -26.5t-37 -21t-36.5 -16t-40 -13t-38.5 -10.5t-42 -9.5t-40.5 -8.5q-138 -31 -225.5 -73t-144.5 -110.5t-83.5 -158 t-38.5 -225.5h6q50 103 150.5 161t222.5 58q196 0 326.5 -135.5t130.5 -346.5q0 -221 -134 -351t-342 -130q-105 0 -188.5 34t-137 91t-89 137t-50 165.5t-14.5 182.5zM225 444q0 -101 39.5 -187t120 -141t186.5 -55q90 0 159.5 35t109 92t59 122t19.5 134q0 72 -23 140 t-65 122.5t-109.5 87.5t-149.5 33q-154 0 -250 -113t-96 -270z" />
<glyph unicode="&#x432;" horiz-adv-x="940" d="M152 0v889h331q72 0 125.5 -16.5t82 -40t45.5 -56t21.5 -57.5t4.5 -51q0 -59 -30 -113t-93 -80v-4q78 -10 135 -70.5t57 -148.5q0 -19 -2 -36.5t-9.5 -44t-20.5 -48.5t-37 -45.5t-56.5 -40t-82.5 -27t-111 -10.5h-360zM274 98h228q200 0 200 150q0 29 -7.5 54t-26 52 t-59.5 42.5t-101 15.5h-234v-314zM274 510h189q93 0 137.5 32t44.5 109q0 23 -4.5 41.5t-20.5 44t-56 40t-101 14.5h-189v-281z" />
<glyph unicode="&#x433;" horiz-adv-x="669" d="M152 0v889h495v-98h-373v-791h-122z" />
<glyph unicode="&#x434;" horiz-adv-x="978" d="M29 98q46 3 81 19t56 45t35 60t20 75t8 77.5t2 80.5v434h576v-791h129v-327h-115v229h-678v-229h-114v327zM246 98h438v693h-330v-420q0 -188 -108 -273z" />
<glyph unicode="&#x435;" horiz-adv-x="1054" d="M94 444q0 96 30 182t86.5 153.5t144.5 107t196 39.5q88 0 159.5 -29t117 -74t76.5 -103.5t44 -115t13 -110.5v-60h-736q-2 -67 19 -132t60 -119.5t103.5 -88t143.5 -33.5q211 0 315 220l95 -48q-136 -270 -410 -270q-86 0 -161 27t-128.5 73.5t-92 107.5t-57 130.5 t-18.5 142.5zM236 532h602q-3 116 -80.5 205.5t-204.5 89.5q-125 0 -211.5 -81.5t-105.5 -213.5z" />
<glyph unicode="&#x436;" horiz-adv-x="1286" d="M23 0l430 475l-402 414h152l379 -404v404h123v-404l378 404h152l-401 -414l430 -475h-158l-401 463v-463h-123v463l-402 -463h-157z" />
<glyph unicode="&#x437;" horiz-adv-x="882" d="M51 172l101 51q86 -162 272 -162q97 0 158 48.5t61 134.5q0 45 -18.5 78t-42 49t-57 25t-51.5 10.5t-36 1.5h-112v98h112q85 0 137 38.5t52 119.5q0 45 -17 78t-38 48.5t-51.5 24.5t-46 10.5t-32.5 1.5q-32 0 -56.5 -4t-60.5 -17.5t-71 -48t-66 -87.5l-94 61 q117 195 355 195q130 0 215.5 -74t85.5 -193q0 -139 -156 -196v-4q72 -14 126 -70.5t54 -152.5q0 -69 -30 -122.5t-80 -85.5t-111.5 -48.5t-128.5 -16.5q-143 0 -235.5 58.5t-137.5 150.5z" />
<glyph unicode="&#x438;" horiz-adv-x="1030" d="M152 -57v946h122v-645l605 696v-940h-123v639z" />
<glyph unicode="&#x439;" horiz-adv-x="1028" d="M152 -57v946h122v-645l603 696v-940h-123v639zM233 1268l113 45q6 -24 16 -45.5t29.5 -48.5t55 -43.5t81.5 -16.5t81.5 16.5t55.5 43t30 48.5t16 46l112 -45q-29 -94 -110.5 -150.5t-184.5 -56.5t-184.5 56.5t-110.5 150.5z" />
<glyph unicode="&#x43a;" horiz-adv-x="876" d="M152 0v889h122v-397l398 397h147l-428 -414l463 -475h-158l-422 444v-444h-122z" />
<glyph unicode="&#x43b;" horiz-adv-x="972" d="M23 0v98q46 -1 78.5 11t50.5 30t28 51t12.5 64.5t2.5 79.5v555h626v-889h-123v791h-381v-531q0 -265 -294 -260z" />
<glyph unicode="&#x43c;" horiz-adv-x="1232" d="M43 0l211 954l362 -782l363 782l211 -954h-123l-127 631l-324 -688l-323 688l-127 -631h-123z" />
<glyph unicode="&#x43d;" horiz-adv-x="1048" d="M152 0v889h122v-385h500v385h123v-889h-123v406h-500v-406h-122z" />
<glyph unicode="&#x43e;" horiz-adv-x="1155" d="M94 444q0 208 136 345t348 137t347.5 -137t135.5 -345t-135.5 -344.5t-347.5 -136.5t-348 136.5t-136 344.5zM225 444q0 -169 103 -276t250 -107q146 0 249 107t103 276t-103 276t-249 107q-147 0 -250 -107t-103 -276z" />
<glyph unicode="&#x43f;" horiz-adv-x="1019" d="M152 0v889h716v-889h-123v791h-471v-791h-122z" />
<glyph unicode="&#x440;" horiz-adv-x="1150" d="M152 -430v1319h114v-158q105 195 332 195q204 0 331.5 -133.5t127.5 -348.5q0 -207 -124.5 -344t-330.5 -137q-209 0 -328 174v-567h-122zM266 444q0 -178 99 -280.5t237 -102.5q150 0 237 108.5t87 274.5q0 55 -11.5 108t-37.5 103.5t-64.5 88t-97 60.5t-129.5 23 q-142 0 -231 -111t-89 -272z" />
<glyph unicode="&#x441;" horiz-adv-x="935" d="M94 444q0 213 143.5 347.5t364.5 134.5q169 0 277 -76v-121q-82 58 -143.5 78t-125.5 20q-177 0 -281 -110t-104 -273q0 -171 107 -277t266 -106q153 0 281 111v-129q-130 -80 -275 -80q-221 0 -365.5 135t-144.5 346z" />
<glyph unicode="&#x442;" horiz-adv-x="798" d="M23 791v98h753v-98h-315v-791h-123v791h-315z" />
<glyph unicode="&#x443;" horiz-adv-x="927" d="M23 889h139l334 -752l284 752h125l-524 -1319h-133l184 438z" />
<glyph unicode="&#x444;" horiz-adv-x="1372" d="M94 444q0 94 30 171.5t80.5 130t119 89t144 53t157.5 15.5v531h123v-531q103 1 195.5 -26t168.5 -81t121 -145t45 -207q0 -94 -29.5 -171.5t-80 -130t-119 -88.5t-144 -52.5t-157.5 -15.5v-416h-123v416q-82 -1 -157.5 15.5t-144 52.5t-119 88.5t-80.5 130t-30 171.5z M225 444q0 -86 27.5 -152.5t68.5 -104.5t97.5 -62t105.5 -32t101 -9v721q-52 -1 -101 -9t-105.5 -32.5t-97.5 -62.5t-68.5 -104.5t-27.5 -152.5zM748 84q52 1 101 9t105.5 32t97 62t68 104.5t27.5 152.5t-27.5 152.5t-68 104.5t-97 62.5t-105.5 32.5t-101 9v-721z" />
<glyph unicode="&#x445;" horiz-adv-x="854" d="M23 0l329 457l-315 432h158l237 -346l221 346h144l-295 -430l329 -459h-155l-252 373l-244 -373h-157z" />
<glyph unicode="&#x446;" horiz-adv-x="1011" d="M152 0v889h122v-791h443v791h123v-791h143v-327h-115v229h-716z" />
<glyph unicode="&#x447;" horiz-adv-x="919" d="M123 621v268h123v-268q0 -113 40.5 -150t157.5 -37q76 0 201 17v438h123v-889h-123v358q-144 -20 -233 -20q-165 0 -227 63.5t-62 219.5z" />
<glyph unicode="&#x448;" horiz-adv-x="1503" d="M152 0v889h122v-791h416v791h123v-791h416v791h123v-889h-1200z" />
<glyph unicode="&#x449;" horiz-adv-x="1525" d="M152 0v889h122v-791h416v791h123v-791h416v791h123v-791h145v-327h-115v229h-1230z" />
<glyph unicode="&#x44a;" horiz-adv-x="946" d="M23 791v98h337v-361h177q99 0 168.5 -23.5t104.5 -64t49.5 -83.5t14.5 -93q0 -264 -339 -264h-297v791h-215zM360 98h166q30 0 49.5 1t55 10t57 25t38.5 49.5t17 80.5q0 166 -215 166h-168v-332z" />
<glyph unicode="&#x44b;" horiz-adv-x="1177" d="M152 0v889h122v-361h177q337 0 337 -264t-339 -264h-297zM274 98h166q30 0 49.5 1t55 10t57 25t38.5 49.5t17 80.5q0 166 -215 166h-168v-332zM903 0v889h123v-889h-123z" />
<glyph unicode="&#x44c;" horiz-adv-x="860" d="M152 0v889h122v-361h177q337 0 337 -264t-339 -264h-297zM274 98h166q30 0 49.5 1t55 10t57 25t38.5 49.5t17 80.5q0 166 -215 166h-168v-332z" />
<glyph unicode="&#x44d;" horiz-adv-x="862" d="M57 8v115q95 -62 209 -62q81 0 146 23t105 58.5t67 83.5t38.5 92t14.5 90h-479v98h479q-5 41 -17.5 81t-41 85t-69.5 78t-107.5 55t-149.5 22q-91 0 -195 -47v109q92 37 215 37q225 0 360.5 -131.5t135.5 -350.5q0 -99 -29.5 -181t-78.5 -136.5t-114 -92t-133.5 -54.5 t-138.5 -17q-114 0 -217 45z" />
<glyph unicode="&#x44e;" horiz-adv-x="1499" d="M152 0v889h122v-383h166q29 189 155 304.5t327 115.5q212 0 347.5 -137.5t135.5 -344.5q0 -208 -135.5 -344.5t-347.5 -136.5q-111 0 -204 39.5t-152 104t-92 143t-34 158.5h-166v-408h-122zM571 444q0 -170 101.5 -276.5t249.5 -106.5q83 0 151.5 33.5t111.5 89t66 123 t23 137.5t-23 137.5t-66 123t-111.5 89t-151.5 33.5q-148 0 -249.5 -106.5t-101.5 -276.5z" />
<glyph unicode="&#x44f;" horiz-adv-x="876" d="M57 0l258 383q-94 10 -158.5 73.5t-64.5 174.5q0 50 15 93t49 81.5t98 61t152 22.5h319v-889h-123v373h-172l-235 -373h-138zM215 631q0 -160 209 -160h178v320h-178q-209 0 -209 -160z" />
<glyph unicode="&#x451;" horiz-adv-x="1054" d="M94 444q0 96 30 182t86.5 153.5t144.5 107t196 39.5q88 0 159.5 -29t117 -74t76.5 -103.5t44 -115t13 -110.5v-60h-736q-2 -67 19 -132t60 -119.5t103.5 -88t143.5 -33.5q211 0 315 220l95 -48q-136 -270 -410 -270q-86 0 -161 27t-128.5 73.5t-92 107.5t-57 130.5 t-18.5 142.5zM236 532h602q-3 116 -80.5 205.5t-204.5 89.5q-125 0 -211.5 -81.5t-105.5 -213.5zM268 1190q0 40 27 67t67 27t67.5 -27t27.5 -67t-27.5 -67t-67.5 -27t-67 27t-27 67zM598 1190q0 40 27 67t67 27t67 -27t27 -67t-27 -67t-67 -27t-67 27t-27 67z" />
<glyph unicode="&#x452;" horiz-adv-x="995" d="M14 1167v99h136v239h122v-239h459v-99h-459v-426q102 185 299 185q65 0 117.5 -20.5t86 -51.5t58.5 -76.5t37.5 -86.5t20 -90t9 -78.5t1.5 -61.5q0 -113 -23 -210t-71 -182.5t-103.5 -154.5t-138.5 -154l-71 68q165 206 220.5 337.5t55.5 311.5q0 21 -1 42.5t-6 58 t-13.5 68t-24.5 66t-37.5 59t-55.5 40.5t-75 16q-45 0 -92 -21t-91.5 -62t-73 -114.5t-28.5 -166.5v-463h-122v1167h-136z" />
<glyph unicode="&#x453;" horiz-adv-x="669" d="M152 0v889h495v-98h-373v-791h-122zM287 1047l151 258h201l-238 -258h-114z" />
<glyph unicode="&#x454;" horiz-adv-x="862" d="M94 444q0 218 136 350t360 132q112 0 215 -37v-109q-104 47 -197 47q-169 0 -271.5 -95t-107.5 -226h476v-98h-480q5 -69 29 -129.5t68 -110t114.5 -78.5t159.5 -29q114 0 209 62v-115q-103 -45 -217 -45q-72 0 -140.5 17t-133 54.5t-113 92t-78 136.5t-29.5 181z" />
<glyph unicode="&#x455;" horiz-adv-x="782" d="M66 182l100 54q24 -74 81.5 -124.5t141.5 -50.5q94 0 140 51.5t46 125.5q0 76 -52 116t-158 72q-34 10 -49.5 15t-48.5 18t-50.5 24.5t-42 31.5t-37 41.5t-22 52.5t-9.5 67q0 113 80.5 181.5t204.5 68.5q190 0 277 -183l-93 -49q-26 62 -78 97.5t-116 35.5 q-69 0 -110.5 -40t-41.5 -101q0 -33 11.5 -58t35 -41t39.5 -23.5t45 -18.5q154 -56 186 -71q104 -49 137 -125q19 -45 19 -107q0 -45 -15.5 -89.5t-49.5 -89t-101.5 -72.5t-158.5 -28q-223 0 -311 219z" />
<glyph unicode="&#x456;" horiz-adv-x="425" d="M119 1190q0 40 27 67t67 27t67 -27t27 -67t-27 -67t-67 -27t-67 27t-27 67zM152 0v889h122v-889h-122z" />
<glyph unicode="&#x457;" horiz-adv-x="499" d="M31 1190q0 40 27 67t67 27t67 -27t27 -67t-27 -67t-67 -27t-67 27t-27 67zM188 0v889h123v-889h-123zM281 1190q0 40 27 67t67 27t67 -27t27 -67t-27 -67t-67 -27t-67 27t-27 67z" />
<glyph unicode="&#x458;" horiz-adv-x="425" d="M119 1190q0 40 27 67t67 27t67 -27t27 -67t-27 -67t-67 -27t-67 27t-27 67zM152 -430v1319h122v-1319h-122z" />
<glyph unicode="&#x459;" horiz-adv-x="1406" d="M23 0v98q57 -1 93 15.5t52.5 52.5t21.5 73t5 95v555h626v-361h176q338 0 338 -264t-340 -264h-297v791h-381v-531q0 -265 -294 -260zM821 98h166q30 0 49.5 1t55 10t57 25t38.5 49.5t17 80.5q0 166 -215 166h-168v-332z" />
<glyph unicode="&#x45a;" horiz-adv-x="1482" d="M152 0v889h122v-361h500v361h123v-361h176q338 0 338 -264t-340 -264h-297v430h-500v-430h-122zM897 98h166q30 0 49.5 1t55 10t57 25t38.5 49.5t17 80.5q0 166 -215 166h-168v-332z" />
<glyph unicode="&#x45b;" horiz-adv-x="1032" d="M14 1167v99h136v239h122v-239h459v-99h-459v-426q17 34 41 63.5t60 58.5t87 46t111 17q49 0 90.5 -10.5t71 -27.5t53.5 -42t39 -49.5t26.5 -54.5t17 -54t8.5 -50.5t3.5 -40.5t0.5 -28v-569h-123v553q0 32 -2 57.5t-8 60t-20 60t-35 48.5t-56 35.5t-80 12.5 q-124 0 -204.5 -104t-80.5 -260v-463h-122v1167h-136z" />
<glyph unicode="&#x45c;" horiz-adv-x="876" d="M152 0v889h122v-397l398 397h147l-428 -414l463 -475h-158l-422 444v-444h-122zM305 1047l152 258h200l-237 -258h-115z" />
<glyph unicode="&#x45e;" horiz-adv-x="927" d="M23 889h139l334 -752l284 752h125l-524 -1319h-133l184 438zM168 1268l113 45q6 -24 16 -45.5t29.5 -48.5t55 -43.5t81.5 -16.5t81.5 16.5t55 43.5t29.5 48.5t16 45.5l113 -45q-29 -94 -110.5 -150.5t-184.5 -56.5t-184.5 56.5t-110.5 150.5z" />
<glyph unicode="&#x45f;" horiz-adv-x="1019" d="M152 0v889h122v-791h471v791h123v-889h-301v-258h-114v258h-301z" />
<glyph unicode="&#x490;" horiz-adv-x="833" d="M180 0v1434h502v243h129v-358h-492v-1319h-139z" />
<glyph unicode="&#x491;" horiz-adv-x="669" d="M152 0v889h380v229h115v-327h-373v-791h-122z" />
<glyph unicode="&#x2000;" horiz-adv-x="871" />
<glyph unicode="&#x2001;" horiz-adv-x="1743" />
<glyph unicode="&#x2002;" horiz-adv-x="871" />
<glyph unicode="&#x2003;" horiz-adv-x="1743" />
<glyph unicode="&#x2004;" horiz-adv-x="581" />
<glyph unicode="&#x2005;" horiz-adv-x="435" />
<glyph unicode="&#x2006;" horiz-adv-x="290" />
<glyph unicode="&#x2007;" horiz-adv-x="290" />
<glyph unicode="&#x2008;" horiz-adv-x="217" />
<glyph unicode="&#x2009;" horiz-adv-x="348" />
<glyph unicode="&#x200a;" horiz-adv-x="96" />
<glyph unicode="&#x2010;" horiz-adv-x="630" d="M86 467v123h459v-123h-459z" />
<glyph unicode="&#x2011;" horiz-adv-x="630" d="M86 467v123h459v-123h-459z" />
<glyph unicode="&#x2012;" horiz-adv-x="630" d="M86 467v123h459v-123h-459z" />
<glyph unicode="&#x2013;" horiz-adv-x="1228" d="M102 467v115h1024v-115h-1024z" />
<glyph unicode="&#x2014;" horiz-adv-x="1679" d="M80 467v98h1519v-98h-1519z" />
<glyph unicode="&#x2018;" horiz-adv-x="532" d="M94 1032l273 445l71 -33l-215 -475z" />
<glyph unicode="&#x2019;" horiz-adv-x="532" d="M94 1001l215 476l129 -64l-272 -444z" />
<glyph unicode="&#x201a;" horiz-adv-x="518" d="M94 -274l187 503l143 -67l-256 -471z" />
<glyph unicode="&#x201c;" horiz-adv-x="776" d="M94 1032l273 445l71 -33l-215 -475zM338 1018l272 444l72 -32l-215 -476z" />
<glyph unicode="&#x201d;" horiz-adv-x="776" d="M94 1001l215 476l129 -64l-272 -444zM338 987l215 475l129 -63l-272 -445z" />
<glyph unicode="&#x201e;" horiz-adv-x="776" d="M94 -260l215 475l129 -63l-272 -447zM338 -274l215 475l129 -64l-272 -446z" />
<glyph unicode="&#x2022;" horiz-adv-x="696" d="M102 680q0 101 72.5 173.5t173.5 72.5t173.5 -72.5t72.5 -173.5t-72.5 -173.5t-173.5 -72.5t-173.5 72.5t-72.5 173.5z" />
<glyph unicode="&#x2026;" horiz-adv-x="1425" d="M143 72q0 40 27.5 67t67.5 27t67 -27t27 -67t-27 -67.5t-67 -27.5t-67.5 27.5t-27.5 67.5zM618 72q0 40 27.5 67t67.5 27t67 -27t27 -67t-27 -67.5t-67 -27.5t-67.5 27.5t-27.5 67.5zM1094 72q0 40 27 67t67 27t67 -27t27 -67t-27 -67.5t-67 -27.5t-67 27.5t-27 67.5z " />
<glyph unicode="&#x202f;" horiz-adv-x="348" />
<glyph unicode="&#x2039;" horiz-adv-x="575" d="M86 451l307 432l88 -58l-268 -374l268 -375l-88 -58z" />
<glyph unicode="&#x203a;" horiz-adv-x="575" d="M94 74l268 375l-268 374l88 58l307 -432l-307 -433z" />
<glyph unicode="&#x205f;" horiz-adv-x="435" />
<glyph unicode="&#x20ac;" d="M57 526l37 111h94q0 9 -1 39.5t-1 44.5q0 15 1 43.5t1 40.5h-131l37 108h105q15 124 51 223t96 176.5t152 120t209 42.5q107 0 193 -30t134 -73v-143q-115 121 -315 121q-89 0 -159.5 -34t-117 -95t-74.5 -138t-38 -170h610l-37 -108h-586q-2 -23 -2 -84q0 -64 2 -84h529 l-35 -111h-479q23 -212 123.5 -326t265.5 -114q187 0 313 119v-144q-45 -42 -130.5 -71t-198.5 -29q-214 0 -342.5 140t-161.5 425h-144z" />
<glyph unicode="&#x2122;" horiz-adv-x="1335" d="M102 1319v115h410v-115h-143v-459h-123v459h-144zM532 860l91 574h135l125 -392l125 392h135l90 -574h-127l-57 373l-121 -373h-90l-121 373l-58 -373h-127z" />
<glyph unicode="&#xe000;" horiz-adv-x="890" d="M0 0v891h891v-891h-891z" />
</font>
</defs>
</svg>
